<mxfile host="app.diagrams.net" modified="2023-11-24T07:51:20.018Z" agent="Mozilla/5.0 (Macintosh; Intel Mac OS X 10_15_7) AppleWebKit/537.36 (KHTML, like Gecko) Chrome/119.0.0.0 Safari/537.36" version="22.1.3" etag="HS5fSAjEjU4McIsDrz_8" type="device">
  <diagram id="xJvp62C8sAbAGmjwGoX_" name="Page-1">
    <mxGraphModel dx="1026" dy="687" grid="1" gridSize="10" guides="1" tooltips="1" connect="1" arrows="1" fold="1" page="1" pageScale="1" pageWidth="827" pageHeight="1169" math="0" shadow="0">
      <root>
        <mxCell id="0" />
        <mxCell id="1" parent="0" />
        <mxCell id="R4Aaj9fQvSGnxe2G60gQ-33" style="edgeStyle=orthogonalEdgeStyle;rounded=0;orthogonalLoop=1;jettySize=auto;html=1;entryX=-0.025;entryY=0.383;entryDx=0;entryDy=0;entryPerimeter=0;" edge="1" parent="1" target="R4Aaj9fQvSGnxe2G60gQ-3">
          <mxGeometry relative="1" as="geometry">
            <mxPoint x="80" y="230" as="sourcePoint" />
            <mxPoint x="335" y="400" as="targetPoint" />
            <Array as="points">
              <mxPoint x="80" y="250" />
              <mxPoint x="335" y="250" />
              <mxPoint x="335" y="393" />
            </Array>
          </mxGeometry>
        </mxCell>
        <mxCell id="R4Aaj9fQvSGnxe2G60gQ-1" value="OrderingSystem" style="swimlane;whiteSpace=wrap;html=1;" vertex="1" parent="1">
          <mxGeometry x="30" y="40" width="210" height="190" as="geometry" />
        </mxCell>
        <mxCell id="R4Aaj9fQvSGnxe2G60gQ-2" value="Margherita" style="swimlane;whiteSpace=wrap;html=1;" vertex="1" parent="1">
          <mxGeometry x="110" y="470" width="160" height="150" as="geometry" />
        </mxCell>
        <mxCell id="R4Aaj9fQvSGnxe2G60gQ-3" value="BasePizza&lt;br&gt;&amp;lt;&amp;lt;Abstract&amp;gt;&amp;gt;" style="rounded=0;whiteSpace=wrap;html=1;" vertex="1" parent="1">
          <mxGeometry x="400" y="370" width="120" height="60" as="geometry" />
        </mxCell>
        <mxCell id="R4Aaj9fQvSGnxe2G60gQ-7" style="edgeStyle=orthogonalEdgeStyle;rounded=0;orthogonalLoop=1;jettySize=auto;html=1;exitX=0.5;exitY=0;exitDx=0;exitDy=0;" edge="1" parent="1" source="R4Aaj9fQvSGnxe2G60gQ-4" target="R4Aaj9fQvSGnxe2G60gQ-3">
          <mxGeometry relative="1" as="geometry" />
        </mxCell>
        <mxCell id="R4Aaj9fQvSGnxe2G60gQ-4" value="Peperoni" style="swimlane;whiteSpace=wrap;html=1;" vertex="1" parent="1">
          <mxGeometry x="365" y="480" width="170" height="150" as="geometry" />
        </mxCell>
        <mxCell id="R4Aaj9fQvSGnxe2G60gQ-5" value="Cheese" style="swimlane;whiteSpace=wrap;html=1;" vertex="1" parent="1">
          <mxGeometry x="590" y="480" width="170" height="150" as="geometry" />
        </mxCell>
        <mxCell id="R4Aaj9fQvSGnxe2G60gQ-6" style="edgeStyle=orthogonalEdgeStyle;rounded=0;orthogonalLoop=1;jettySize=auto;html=1;entryX=0.175;entryY=1;entryDx=0;entryDy=0;entryPerimeter=0;" edge="1" parent="1" source="R4Aaj9fQvSGnxe2G60gQ-2" target="R4Aaj9fQvSGnxe2G60gQ-3">
          <mxGeometry relative="1" as="geometry">
            <Array as="points">
              <mxPoint x="320" y="545" />
              <mxPoint x="320" y="430" />
            </Array>
          </mxGeometry>
        </mxCell>
        <mxCell id="R4Aaj9fQvSGnxe2G60gQ-8" style="edgeStyle=orthogonalEdgeStyle;rounded=0;orthogonalLoop=1;jettySize=auto;html=1;entryX=0.942;entryY=1.033;entryDx=0;entryDy=0;entryPerimeter=0;" edge="1" parent="1" source="R4Aaj9fQvSGnxe2G60gQ-5" target="R4Aaj9fQvSGnxe2G60gQ-3">
          <mxGeometry relative="1" as="geometry">
            <Array as="points">
              <mxPoint x="580" y="555" />
              <mxPoint x="580" y="432" />
            </Array>
          </mxGeometry>
        </mxCell>
        <mxCell id="R4Aaj9fQvSGnxe2G60gQ-9" value="is-a" style="text;html=1;strokeColor=none;fillColor=none;align=center;verticalAlign=middle;whiteSpace=wrap;rounded=0;" vertex="1" parent="1">
          <mxGeometry x="280" y="450" width="60" height="30" as="geometry" />
        </mxCell>
        <mxCell id="R4Aaj9fQvSGnxe2G60gQ-11" value="is-a" style="text;html=1;strokeColor=none;fillColor=none;align=center;verticalAlign=middle;whiteSpace=wrap;rounded=0;" vertex="1" parent="1">
          <mxGeometry x="420" y="440" width="60" height="30" as="geometry" />
        </mxCell>
        <mxCell id="R4Aaj9fQvSGnxe2G60gQ-12" value="is-a" style="text;html=1;strokeColor=none;fillColor=none;align=center;verticalAlign=middle;whiteSpace=wrap;rounded=0;" vertex="1" parent="1">
          <mxGeometry x="520" y="410" width="60" height="30" as="geometry" />
        </mxCell>
        <mxCell id="R4Aaj9fQvSGnxe2G60gQ-14" style="edgeStyle=orthogonalEdgeStyle;rounded=0;orthogonalLoop=1;jettySize=auto;html=1;" edge="1" parent="1" source="R4Aaj9fQvSGnxe2G60gQ-13" target="R4Aaj9fQvSGnxe2G60gQ-3">
          <mxGeometry relative="1" as="geometry" />
        </mxCell>
        <mxCell id="R4Aaj9fQvSGnxe2G60gQ-13" value="Decorator&lt;br style=&quot;border-color: var(--border-color);&quot;&gt;&amp;lt;&amp;lt;Abstract&amp;gt;&amp;gt;" style="rounded=0;whiteSpace=wrap;html=1;" vertex="1" parent="1">
          <mxGeometry x="390" y="220" width="120" height="60" as="geometry" />
        </mxCell>
        <mxCell id="R4Aaj9fQvSGnxe2G60gQ-15" value="is-a" style="text;html=1;strokeColor=none;fillColor=none;align=center;verticalAlign=middle;whiteSpace=wrap;rounded=0;" vertex="1" parent="1">
          <mxGeometry x="414" y="320" width="60" height="30" as="geometry" />
        </mxCell>
        <mxCell id="R4Aaj9fQvSGnxe2G60gQ-17" style="edgeStyle=orthogonalEdgeStyle;rounded=0;orthogonalLoop=1;jettySize=auto;html=1;" edge="1" parent="1" source="R4Aaj9fQvSGnxe2G60gQ-16" target="R4Aaj9fQvSGnxe2G60gQ-13">
          <mxGeometry relative="1" as="geometry" />
        </mxCell>
        <mxCell id="R4Aaj9fQvSGnxe2G60gQ-16" value="ExtraCheese" style="swimlane;whiteSpace=wrap;html=1;" vertex="1" parent="1">
          <mxGeometry x="320" y="40" width="130" height="110" as="geometry" />
        </mxCell>
        <mxCell id="R4Aaj9fQvSGnxe2G60gQ-20" style="edgeStyle=orthogonalEdgeStyle;rounded=0;orthogonalLoop=1;jettySize=auto;html=1;entryX=0.5;entryY=0;entryDx=0;entryDy=0;" edge="1" parent="1" source="R4Aaj9fQvSGnxe2G60gQ-18" target="R4Aaj9fQvSGnxe2G60gQ-13">
          <mxGeometry relative="1" as="geometry" />
        </mxCell>
        <mxCell id="R4Aaj9fQvSGnxe2G60gQ-18" value="Mushrooms" style="swimlane;whiteSpace=wrap;html=1;" vertex="1" parent="1">
          <mxGeometry x="474" y="40" width="130" height="110" as="geometry" />
        </mxCell>
        <mxCell id="R4Aaj9fQvSGnxe2G60gQ-21" value="Veggies" style="swimlane;whiteSpace=wrap;html=1;" vertex="1" parent="1">
          <mxGeometry x="630" y="40" width="130" height="110" as="geometry" />
        </mxCell>
        <mxCell id="R4Aaj9fQvSGnxe2G60gQ-22" style="edgeStyle=orthogonalEdgeStyle;rounded=0;orthogonalLoop=1;jettySize=auto;html=1;entryX=1.017;entryY=0.383;entryDx=0;entryDy=0;entryPerimeter=0;" edge="1" parent="R4Aaj9fQvSGnxe2G60gQ-21" target="R4Aaj9fQvSGnxe2G60gQ-13">
          <mxGeometry relative="1" as="geometry">
            <mxPoint x="105" y="110" as="sourcePoint" />
            <mxPoint x="-15" y="265" as="targetPoint" />
            <Array as="points">
              <mxPoint x="105" y="170" />
              <mxPoint x="-118" y="170" />
            </Array>
          </mxGeometry>
        </mxCell>
        <mxCell id="R4Aaj9fQvSGnxe2G60gQ-24" value="is-a" style="text;html=1;strokeColor=none;fillColor=none;align=center;verticalAlign=middle;whiteSpace=wrap;rounded=0;" vertex="1" parent="1">
          <mxGeometry x="414" y="180" width="60" height="30" as="geometry" />
        </mxCell>
        <mxCell id="R4Aaj9fQvSGnxe2G60gQ-25" value="is-a" style="text;html=1;strokeColor=none;fillColor=none;align=center;verticalAlign=middle;whiteSpace=wrap;rounded=0;" vertex="1" parent="1">
          <mxGeometry x="600" y="200" width="60" height="30" as="geometry" />
        </mxCell>
        <mxCell id="R4Aaj9fQvSGnxe2G60gQ-30" value="has-a" style="text;html=1;strokeColor=none;fillColor=none;align=center;verticalAlign=middle;whiteSpace=wrap;rounded=0;" vertex="1" parent="1">
          <mxGeometry x="474" y="300" width="60" height="30" as="geometry" />
        </mxCell>
        <mxCell id="R4Aaj9fQvSGnxe2G60gQ-32" style="edgeStyle=orthogonalEdgeStyle;rounded=0;orthogonalLoop=1;jettySize=auto;html=1;entryX=0.867;entryY=-0.033;entryDx=0;entryDy=0;entryPerimeter=0;" edge="1" parent="1" source="R4Aaj9fQvSGnxe2G60gQ-13" target="R4Aaj9fQvSGnxe2G60gQ-3">
          <mxGeometry relative="1" as="geometry">
            <Array as="points">
              <mxPoint x="480" y="325" />
              <mxPoint x="494" y="325" />
            </Array>
          </mxGeometry>
        </mxCell>
        <mxCell id="R4Aaj9fQvSGnxe2G60gQ-34" value="&amp;lt;&amp;lt;Create&amp;gt;&amp;gt;" style="text;html=1;strokeColor=none;fillColor=none;align=center;verticalAlign=middle;whiteSpace=wrap;rounded=0;" vertex="1" parent="1">
          <mxGeometry x="260" y="220" width="60" height="30" as="geometry" />
        </mxCell>
      </root>
    </mxGraphModel>
  </diagram>
</mxfile>
